# xmcd
#
# Track frame offsets:
#	150
#	9890
#	21692
#	30625
#	41892
#	51285
#	60150
#	71085
#	82517
#	90882
#	101462
#	110560
#	121720
#	134907
#	145567
#	158487
#	171292
#	184137
#	198642
#	212850
#	222460
#	233772
#	246862
#
# Disc length: 3464 seconds
#
# Revision: 1
# Processed by: cddbd v1.4PL0 Copyright (c) Steve Scherf et al.
# Submitted via: MusicWizard 6.0.0
#
DISCID=3c0d8617
DTITLE=Johnny Cash - Hymns From The Heart/ Sings Precious Memories
DYEAR=2001
DGENRE=Country
TTITLE0=It Was Jesus
TTITLE1=I Saw A Man
TTITLE2=Are All The Children In
TTITLE3=The Old Account
TTITLE4=Lead Me Gently Home
TTITLE5=Swing Low, Sweet Chariot
TTITLE6=Snow In His Hair
TTITLE7=Lead Me, Father
TTITLE8=I Call Him
TTITLE9=These Things Shall Pass
TTITLE10=He'll Be A Friend
TTITLE11=God Will
TTITLE12=Precious Memories
TTITLE13=Rock Of Ages
TTITLE14=The Old Rugged Cross
TTITLE15=Softly And Tenderly
TTITLE16=In The Sweet By And By
TTITLE17=Just As I Am
TTITLE18=Farther Along
TTITLE19=When The Roll Is Called Up Yonder
TTITLE20=Amazing Grace
TTITLE21=At The Cross
TTITLE22=Have Thine Own Way, Lord
EXTD=(c)2001 S&P Records USA\nSony Music Special Products A32191\nupc 739343070127
EXTT0=
EXTT1=
EXTT2=
EXTT3=
EXTT4=
EXTT5=
EXTT6=
EXTT7=
EXTT8=
EXTT9=
EXTT10=
EXTT11=
EXTT12=
EXTT13=
EXTT14=
EXTT15=
EXTT16=
EXTT17=
EXTT18=
EXTT19=
EXTT20=
EXTT21=
EXTT22=
PLAYORDER=
